<?xml version="1.0" encoding="UTF-8" standalone="no"?>
<svg width="893px" height="152px" viewBox="0 0 893 152" version="1.1" xmlns="http://www.w3.org/2000/svg" xmlns:xlink="http://www.w3.org/1999/xlink">
    <!-- Generator: Sketch 3.8.3 (29802) - http://www.bohemiancoding.com/sketch -->
    <title>HIKETRACKER</title>
    <desc>Created with Sketch.</desc>
    <defs></defs>
    <g id="Page-1" stroke="none" stroke-width="1" fill="none" fill-rule="evenodd">
        <g id="logo" transform="translate(0.000000, 1.000000)" fill="#FFFFFF">
            <g id="Page-1">
                <g id="HIKETRACKER">
                    <path d="M59.23,111.685 L33.04,111.685 L33.04,148 L0.91,148 L0.91,52.42 L32.905,52.42 L32.905,84.82 L59.095,84.82 L59.095,52.42 L91.36,52.42 L91.36,148 L59.23,148 L59.23,111.685 L59.23,111.685 Z M99.47,52.42 L131.87,52.42 L131.87,148 L99.47,148 L99.47,52.42 L99.47,52.42 Z M171.57,109.93 L171.3,109.93 L171.3,148 L139.98,148 L139.98,52.42 L171.165,52.42 L171.165,87.655 L171.435,87.655 L196.95,52.42 L234.75,52.42 L198.84,96.16 L236.505,148 L197.085,148 L171.57,109.93 L171.57,109.93 Z M233.275,52.42 L299.02,52.42 L299.02,79.15 L263.515,79.15 L263.515,87.385 L296.86,87.385 L296.86,112.36 L263.515,112.36 L263.515,121.27 L301.315,121.27 L301.315,148 L233.275,148 L233.275,52.42 L233.275,52.42 Z M352.625,148 L320.495,148 L320.495,79.555 L297.005,79.555 L297.005,52.42 L289.29248,52.42 L376.115,52.42 L376.115,79.555 L352.625,79.555 L352.625,148 L352.625,148 Z M376.26,52.42 L417.435,52.42 C422.115023,52.42 426.772477,52.8924953 431.4075,53.8375 C436.042523,54.7825047 440.182482,56.4474881 443.8275,58.8325 C447.472518,61.2175119 450.419989,64.41248 452.67,68.4175 C454.920011,72.42252 456.045,77.4399699 456.045,83.47 C456.045,89.3200293 454.605014,94.4724777 451.725,98.9275 C448.844985,103.382522 444.705027,106.824988 439.305,109.255 L463.605,148 L426.615,148 L408.255,113.845 L407.31,113.845 L407.31,148 L376.26,148 L376.26,52.42 L376.26,52.42 Z M407.04,92.785 L413.385,92.785 C414.465005,92.785 415.657493,92.6950009 416.9625,92.515 C418.267506,92.3349991 419.482494,91.9525029 420.6075,91.3675 C421.732505,90.7824971 422.677496,89.9725052 423.4425,88.9375 C424.207504,87.9024948 424.59,86.5300085 424.59,84.82 C424.59,83.1099914 424.275003,81.7600049 423.645,80.77 C423.014997,79.779995 422.205005,79.0375025 421.215,78.5425 C420.224995,78.0474975 419.145006,77.7325007 417.975,77.5975 C416.804994,77.4624993 415.725005,77.395 414.735,77.395 L407.04,77.395 L407.04,92.785 L407.04,92.785 Z M489.535,52.42 L523.69,52.42 L560.95,148 L525.985,148 L520.99,133.96 L490.615,133.96 L485.89,148 L451.87,148 L489.535,52.42 L489.535,52.42 Z M506.14,85.765 L498.31,109.39 L513.835,109.39 L506.14,85.765 L506.14,85.765 Z M551.24,100.21 C551.24,92.5599617 552.589986,85.630031 555.29,79.42 C557.990013,73.2099689 561.679976,67.900022 566.36,63.49 C571.040023,59.0799779 576.552468,55.6825119 582.8975,53.2975 C589.242531,50.9124881 596.014964,49.72 603.215,49.72 C610.595037,49.72 617.569967,50.9124881 624.14,53.2975 C630.710033,55.6825119 636.199978,58.8999797 640.61,62.95 L620.9,86.71 C619.099991,84.3699883 616.850013,82.5925061 614.15,81.3775 C611.449986,80.1624939 608.435016,79.555 605.105,79.555 C602.404986,79.555 599.885011,80.0274953 597.545,80.9725 C595.204988,81.9175047 593.157509,83.289991 591.4025,85.09 C589.647491,86.890009 588.275005,89.0724872 587.285,91.6375 C586.294995,94.2025128 585.8,97.0599842 585.8,100.21 C585.8,103.360016 586.317495,106.172488 587.3525,108.6475 C588.387505,111.122512 589.782491,113.259991 591.5375,115.06 C593.292509,116.860009 595.339988,118.232495 597.68,119.1775 C600.020011,120.122505 602.494987,120.595 605.105,120.595 C608.795018,120.595 611.967486,119.830008 614.6225,118.3 C617.277513,116.769992 619.369992,114.97001 620.9,112.9 L640.61,136.525 C636.289978,140.845022 630.980031,144.287487 624.68,146.8525 C618.379968,149.417513 611.22504,150.7 603.215,150.7 C596.014964,150.7 589.242531,149.485012 582.8975,147.055 C576.552468,144.624988 571.040023,141.182522 566.36,136.7275 C561.679976,132.272478 557.990013,126.962531 555.29,120.7975 C552.589986,114.632469 551.24,107.770038 551.24,100.21 L551.24,100.21 L551.24,100.21 Z M671.4,109.93 L671.13,109.93 L671.13,148 L639.81,148 L639.81,52.42 L670.995,52.42 L670.995,87.655 L671.265,87.655 L696.78,52.42 L734.58,52.42 L698.67,96.16 L736.335,148 L696.915,148 L671.4,109.93 L671.4,109.93 Z M733.105,52.42 L798.85,52.42 L798.85,79.15 L763.345,79.15 L763.345,87.385 L796.69,87.385 L796.69,112.36 L763.345,112.36 L763.345,121.27 L801.145,121.27 L801.145,148 L733.105,148 L733.105,52.42 L733.105,52.42 Z M804.8,52.42 L845.975,52.42 C850.655023,52.42 855.312476,52.8924953 859.9475,53.8375 C864.582523,54.7825047 868.722481,56.4474881 872.3675,58.8325 C876.012518,61.2175119 878.959988,64.41248 881.21,68.4175 C883.460011,72.42252 884.585,77.4399699 884.585,83.47 C884.585,89.3200293 883.145014,94.4724777 880.265,98.9275 C877.384985,103.382522 873.245027,106.824988 867.845,109.255 L892.145,148 L855.155,148 L836.795,113.845 L835.85,113.845 L835.85,148 L804.8,148 L804.8,52.42 L804.8,52.42 Z M835.58,92.785 L841.925,92.785 C843.005005,92.785 844.197493,92.6950009 845.5025,92.515 C846.807506,92.3349991 848.022494,91.9525029 849.1475,91.3675 C850.272505,90.7824971 851.217496,89.9725052 851.9825,88.9375 C852.747503,87.9024948 853.13,86.5300085 853.13,84.82 C853.13,83.1099914 852.815003,81.7600049 852.185,80.77 C851.554996,79.779995 850.745005,79.0375025 849.755,78.5425 C848.764995,78.0474975 847.685005,77.7325007 846.515,77.5975 C845.344994,77.4624993 844.265005,77.395 843.275,77.395 L835.58,77.395 L835.58,92.785 L835.58,92.785 Z" id="Shape"></path>
                    <polygon id="Path-1" stroke="#FFFFFF" points="1 49.3085938 45.53125 18.9967474 109.960937 29.8838625 159.957031 0.7699297 258.730469 21.1984375 318.074219 1.2265929 389.5 42.6770501 492.652344 5.8814689 567.304688 31.4215159 650.886719 1.9678433 687.214844 12.8527523 701.816406 3.6224201 737.730469 16.2016157 771.125 0 892.480469 49.3085938"></polygon>
                </g>
            </g>
        </g>
    </g>
</svg>