<?xml version="1.0" encoding="utf-8"?>
<!-- Generator: Adobe Illustrator 20.0.0, SVG Export Plug-In . SVG Version: 6.00 Build 0)  -->
<svg version="1.1" id="Layer_1" xmlns="http://www.w3.org/2000/svg" xmlns:xlink="http://www.w3.org/1999/xlink" x="0px" y="0px"
	 viewBox="0 0 128 128" style="enable-background:new 0 0 128 128;" xml:space="preserve">
<style type="text/css">
	.st0{fill:#091117;}
	.st1{fill:none;stroke:#000000;stroke-width:0.3;}
</style>
<g>
	<g>
		<g>
			<path class="st0" d="M107.5,59.7l-7.6-8.4c-2.1-2.3-5.6-2.5-7.9-0.4l-6.9,6.3c-2.7,2.4-5.4,5.5-9,1.6l-3.9-4.3
				c-1.5-1.6-4-1.7-5.6-0.3l-5.8,5.3c-1.6,1.5-1.7,4-0.3,5.6l4.1,4.6c2.2,2.4,2.5,4.3-0.5,7l-2.7,2.5c-3.3,3-6.1,1.9-9-1.3l-4.2-4.7
				c-4.2-4.6-2.7-7,0.7-10l9.7-8.7c2-1.8,2.2-5.1,0.4-7.1L48.3,35.5c-1.8-2-5.1-2.2-7.1-0.4L29.6,45.6c-2,1.8-2.2,5.1-0.4,7.1
				l8.6,9.5c3.4,3.8,3.8,6.3-0.6,10.3l-6,5.4c-2.1,1.9-2.3,5.3-0.4,7.4l7.1,7.9c1.9,2.1,5.3,2.3,7.4,0.4l5.5-5
				c3.7-3.3,6.5-4.1,9.9-0.3l3.6,4c1.5,1.6,3.9,1.8,5.6,0.3l6-5.4c1.6-1.5,1.8-3.9,0.3-5.6l-3.9-4.3c-3-3.3-1.9-5.6,0.9-8.1l2.2-2
				c3.8-3.4,6.1-2.3,8.9,0.8l6.3,6.9c2.1,2.3,5.6,2.5,7.9,0.4l8.4-7.6C109.4,65.5,109.5,62,107.5,59.7z"/>
		</g>
	</g>
	<line class="st1" x1="28" y1="-20.2" x2="28" y2="15.8"/>
	<line class="st1" x1="-26" y1="33.8" x2="10" y2="33.8"/>
	<line class="st1" x1="-26" y1="94.9" x2="10" y2="94.9"/>
	<line class="st1" x1="28" y1="148.9" x2="28" y2="112.9"/>
	<line class="st1" x1="108.9" y1="-20.2" x2="108.9" y2="15.8"/>
	<line class="st1" x1="162.9" y1="33.8" x2="126.9" y2="33.8"/>
	<line class="st1" x1="162.9" y1="94.9" x2="126.9" y2="94.9"/>
	<line class="st1" x1="108.9" y1="148.9" x2="108.9" y2="112.9"/>
</g>
<g>
	<path class="st0" d="M64,127.2c-34.7,0-63-28.3-63-63s28.3-63,63-63s63,28.3,63,63S98.7,127.2,64,127.2z M64,17.1
		c-26,0-47.1,21.2-47.1,47.1s21.2,47,47.1,47s47.1-21,47.1-47S90,17.1,64,17.1z"/>
</g>
</svg>
