<?xml version="1.0" encoding="utf-8"?>
<!-- Generator: Adobe Illustrator 20.0.0, SVG Export Plug-In . SVG Version: 6.00 Build 0)  -->
<svg version="1.1" id="Layer_1" xmlns="http://www.w3.org/2000/svg" xmlns:xlink="http://www.w3.org/1999/xlink" x="0px" y="0px"
	 viewBox="0 0 128 128" style="enable-background:new 0 0 128 128;" xml:space="preserve">
<style type="text/css">
	.st0{fill:#FFFFFF;}
</style>
<g>
	<path class="st0" d="M107.2,61.9l-7.4-8.5c-2-2.4-5.5-2.6-7.9-0.6l-7.1,6.1c-2.7,2.3-5.5,5.4-9,1.4l-3.8-4.4
		c-1.4-1.7-4-1.8-5.6-0.4l-6,5.2c-1.7,1.4-1.8,4-0.4,5.6l4,4.6c2.2,2.5,2.4,4.3-0.6,7l-2.8,2.4c-3.4,2.9-6.1,1.8-8.9-1.5l-4.1-4.8
		c-4.1-4.7-2.5-7,0.9-10l9.9-8.5c2.1-1.8,2.3-5,0.5-7.1l-10.4-12c-1.8-2.1-5-2.3-7.1-0.5L29.7,45.9c-2.1,1.8-2.3,5-0.5,7.1l8.4,9.7
		c3.4,3.9,3.7,6.4-0.8,10.3l-6.1,5.3c-2.2,1.9-2.4,5.2-0.5,7.4l6.9,8c1.9,2.2,5.2,2.4,7.4,0.5l5.6-4.9c3.7-3.2,6.6-4,10-0.1l3.5,4.1
		c1.4,1.7,3.9,1.8,5.6,0.4l6.1-5.3c1.7-1.4,1.8-3.9,0.4-5.6l-3.8-4.4c-2.9-3.3-1.7-5.7,1-8l2.3-2c3.9-3.4,6.1-2.1,8.8,1l6.1,7.1
		c2,2.4,5.5,2.6,7.9,0.6l8.6-7.4C109,67.7,109.2,64.2,107.2,61.9z"/>
</g>
<g>
	<path class="st0" d="M65,128C30.3,128,2,99.7,2,65S30.3,2,65,2s63,28.3,63,63S99.7,128,65,128z M65,17.9C39,17.9,17.9,39,17.9,65
		S39,112,65,112s47.1-21,47.1-47S91,17.9,65,17.9z"/>
</g>
</svg>
